<?xml version="1.0" standalone="no"?>
<!DOCTYPE svg PUBLIC "-//W3C//DTD SVG 20010904//EN"
 "http://www.w3.org/TR/2001/REC-SVG-20010904/DTD/svg10.dtd">
<svg version="1.0" xmlns="http://www.w3.org/2000/svg"
 width="4000.000000pt" height="4000.000000pt" viewBox="0 0 4000.000000 4000.000000"
 preserveAspectRatio="xMidYMid meet">

<g transform="translate(0.000000,4000.000000) scale(0.100000,-0.100000)"
fill="#000000" stroke="none">
<path d="M6885 25473 c-106 -7 -336 -45 -475 -79 -355 -87 -734 -267 -1034
-493 -568 -427 -971 -1072 -1100 -1763 -41 -216 -50 -321 -50 -548 1 -237 11
-343 54 -560 53 -266 121 -468 190 -569 207 -303 582 -380 1100 -226 77 22
437 174 1090 458 1679 731 2405 1047 3025 1317 1779 776 2750 1196 2835 1227
203 73 367 104 685 128 255 19 865 32 850 18 -5 -5 -269 -103 -585 -217 -735
-266 -726 -262 -750 -293 -26 -33 -26 -98 -1 -139 28 -45 77 -60 138 -41 51
15 1683 608 1739 632 29 12 44 11 136 -10 132 -30 205 -56 283 -100 53 -29
125 -93 125 -111 0 -20 -73 -105 -138 -161 -148 -127 -303 -216 -483 -277 -57
-19 -216 -73 -354 -120 -719 -243 -1704 -576 -2120 -716 -1209 -407 -1491
-502 -2070 -698 -341 -115 -631 -214 -645 -220 -14 -5 -96 -59 -182 -118 -86
-60 -219 -152 -295 -205 -162 -112 -958 -668 -1783 -1244 -650 -454 -702 -488
-845 -555 -119 -56 -211 -87 -402 -135 -203 -50 -257 -46 -317 25 -51 61 -54
143 -9 211 10 15 245 217 523 449 465 388 826 692 889 748 19 16 -98 -20 -449
-139 -261 -88 -556 -187 -655 -221 -205 -69 -269 -103 -374 -202 -90 -86 -132
-149 -167 -253 -23 -65 -27 -95 -27 -183 1 -196 -14 -162 551 -1315 604 -1234
637 -1301 700 -1385 95 -128 256 -234 427 -281 119 -33 287 -31 410 6 168 50
292 132 396 262 49 61 99 155 254 467 186 377 833 1680 1495 3011 330 664 358
726 415 927 19 67 36 122 38 124 1 2 579 197 1282 434 3636 1223 3462 1164
3588 1226 233 116 448 297 514 433 108 218 -108 411 -577 515 -240 53 -664 83
-1035 72 -309 -9 -698 -33 -815 -52 -135 -21 -338 -76 -471 -127 -63 -25 -595
-255 -1184 -512 -588 -257 -1125 -491 -1193 -520 -82 -36 -124 -50 -127 -42
-2 7 -26 80 -53 162 -106 323 -277 638 -498 915 -91 114 -317 339 -434 432
-443 353 -976 570 -1525 623 -142 13 -374 17 -510 8z m536 -1949 c208 -43 392
-121 561 -235 114 -77 313 -273 390 -384 62 -90 123 -194 116 -200 -4 -5 -263
-118 -1768 -774 -520 -227 -969 -423 -999 -437 -29 -13 -57 -24 -62 -24 -12 0
-45 113 -74 255 -41 199 -35 456 16 657 159 631 701 1098 1354 1168 126 14
334 2 466 -26z"/>
<path d="M9011 22240 c-431 -176 -794 -326 -807 -334 -12 -9 -141 -116 -286
-238 -145 -122 -371 -313 -503 -423 -222 -185 -1628 -1368 -1649 -1386 -17
-16 209 49 301 86 50 20 131 59 180 87 93 53 744 504 2098 1452 165 115 565
394 888 619 478 333 587 414 585 430 -2 11 -7 22 -13 23 -5 2 -363 -140 -794
-316z"/>
<path d="M19595 21369 c-22 -4 -120 -19 -218 -34 l-178 -28 4 -931 c4 -1015 3
-1012 61 -1110 77 -132 250 -213 464 -218 l96 -3 30 172 c16 95 27 175 24 178
-2 3 -28 9 -57 15 -70 13 -134 58 -157 112 -18 41 -19 92 -24 948 l-5 906 -40
-7z"/>
<path d="M26552 21239 c-58 -29 -92 -88 -92 -158 0 -108 63 -174 168 -175 91
-1 153 46 172 130 20 86 -15 164 -90 202 -55 28 -103 28 -158 1z"/>
<path d="M31796 21250 c-65 -20 -116 -95 -116 -170 0 -160 187 -235 301 -121
28 28 39 48 44 85 21 140 -96 245 -229 206z"/>
<path d="M20450 21140 c-94 -9 -209 -26 -242 -36 -17 -5 -18 -62 -18 -1004 l0
-998 63 -11 c100 -17 232 -30 377 -36 675 -29 1111 244 1226 770 21 96 29 349
15 458 -34 255 -142 468 -309 609 -129 110 -273 177 -482 224 -100 23 -142 27
-325 29 -115 2 -253 0 -305 -5z m605 -269 c263 -73 424 -234 497 -497 18 -68
22 -106 22 -269 1 -169 -2 -199 -22 -275 -55 -201 -181 -362 -343 -439 -151
-72 -211 -83 -486 -88 l-243 -5 0 802 0 802 248 -5 c215 -3 257 -7 327 -26z"/>
<path d="M11250 20935 l0 -195 310 0 310 0 0 -835 0 -835 230 0 230 0 0 835 0
835 310 0 310 0 0 195 0 195 -850 0 -850 0 0 -195z"/>
<path d="M25397 21067 l-118 -20 4 -786 c4 -865 3 -858 67 -987 74 -150 200
-221 417 -231 148 -8 260 11 407 67 l24 9 -25 108 c-14 59 -26 109 -27 110 -1
1 -34 -9 -74 -23 -208 -72 -401 -43 -467 70 -48 82 -55 160 -55 602 l0 404
295 0 295 0 0 110 0 110 -295 0 -295 0 0 240 c0 222 -1 240 -17 239 -10 -1
-71 -10 -136 -22z"/>
<path d="M30618 21067 l-118 -20 0 -696 c0 -383 5 -748 10 -811 11 -124 38
-231 75 -295 32 -56 112 -128 171 -155 111 -49 300 -64 454 -34 77 14 186 48
202 63 4 3 -5 55 -19 114 -21 91 -28 107 -41 102 -111 -43 -171 -57 -261 -57
-117 -2 -170 12 -220 58 -88 79 -101 163 -101 670 l0 384 295 0 295 0 0 110 0
110 -292 2 -293 3 -3 238 c-2 218 -4 237 -20 236 -9 -1 -70 -10 -134 -22z"/>
<path d="M14550 20655 c-53 -7 -116 -18 -140 -25 -25 -6 -61 -16 -81 -21 l-36
-9 28 -171 c15 -94 29 -172 31 -174 2 -2 38 5 81 15 122 29 261 43 365 37 176
-10 259 -80 270 -226 l5 -70 -39 11 c-22 7 -110 12 -204 12 -196 0 -317 -22
-434 -78 -168 -81 -245 -212 -246 -416 0 -279 159 -445 471 -491 176 -25 562
-1 815 51 l54 11 0 522 c0 587 -6 645 -71 767 -61 116 -183 205 -334 246 -82
22 -405 28 -535 9z m488 -921 l32 -5 0 -173 0 -173 -102 -6 c-188 -10 -314 18
-354 78 -26 40 -36 101 -23 148 22 83 88 125 213 135 81 7 173 6 234 -4z"/>
<path d="M17945 20649 c-204 -58 -364 -187 -458 -368 -71 -136 -97 -257 -97
-446 0 -402 182 -664 535 -771 84 -25 104 -27 280 -28 145 -1 215 3 295 18
105 18 260 62 260 73 0 8 -49 305 -55 329 l-5 22 -59 -18 c-117 -37 -212 -51
-345 -51 -194 0 -285 29 -376 120 -29 29 -53 65 -63 96 -32 94 -84 85 488 85
l505 0 0 143 c0 324 -74 526 -246 668 -122 102 -273 149 -469 148 -88 0 -139
-6 -190 -20z m338 -372 c80 -47 123 -116 143 -229 l6 -38 -296 0 c-255 0 -296
2 -296 15 0 8 10 44 22 81 28 85 89 155 161 184 76 30 196 24 260 -13z"/>
<path d="M13380 20641 c-117 -21 -204 -42 -297 -72 l-63 -21 0 -739 0 -739
220 0 220 0 0 599 0 599 23 6 c57 18 243 18 337 1 160 -30 139 -48 181 157
l36 177 -91 22 c-129 31 -416 36 -566 10z"/>
<path d="M22800 20643 c-14 -2 -54 -13 -90 -25 -256 -81 -437 -310 -481 -610
-17 -114 -6 -341 20 -443 32 -122 93 -235 170 -315 75 -76 118 -105 218 -148
193 -82 493 -87 738 -11 35 11 67 24 70 29 4 6 -1 58 -11 116 -14 88 -20 104
-33 99 -67 -28 -218 -56 -324 -61 -290 -14 -459 77 -536 287 -22 60 -41 147
-41 184 l0 25 530 0 530 0 0 98 c0 514 -227 787 -648 781 -48 -1 -98 -4 -112
-6z m247 -244 c68 -26 139 -89 176 -157 29 -54 57 -157 57 -214 l0 -38 -390 0
-390 0 6 28 c38 172 95 270 198 342 93 63 234 79 343 39z"/>
<path d="M24288 20640 c-235 -43 -384 -176 -407 -365 -17 -143 20 -258 109
-345 55 -53 134 -97 310 -170 294 -123 359 -177 360 -302 0 -115 -60 -166
-224 -190 -122 -17 -291 1 -429 45 -94 31 -107 33 -111 18 -2 -9 -12 -52 -21
-96 -9 -44 -19 -88 -21 -97 -6 -20 8 -27 133 -63 148 -43 442 -50 598 -14 79
18 189 75 240 124 146 143 148 424 2 574 -56 58 -146 108 -327 181 -244 98
-299 131 -337 204 -21 40 -20 123 2 169 53 112 292 148 524 80 47 -14 93 -27
101 -30 12 -3 20 19 38 104 12 59 22 111 22 114 0 5 -28 13 -170 49 -58 14
-331 22 -392 10z"/>
<path d="M27710 20640 c-129 -8 -261 -27 -387 -56 l-73 -16 0 -749 0 -749 135
0 135 0 0 654 0 654 23 5 c125 31 367 32 462 3 65 -20 129 -75 161 -138 53
-105 57 -143 61 -680 l5 -498 134 0 134 0 0 458 c0 458 -7 595 -35 707 -40
156 -130 274 -258 339 -119 60 -267 80 -497 66z"/>
<path d="M29230 20635 c-134 -22 -210 -45 -210 -64 0 -34 23 -186 29 -193 4
-5 50 2 101 14 75 17 128 22 250 22 150 1 157 0 212 -27 74 -36 128 -99 153
-173 21 -66 34 -244 17 -244 -6 0 -46 7 -89 15 -102 21 -295 20 -403 0 -290
-56 -432 -208 -431 -465 0 -262 136 -417 407 -465 126 -23 384 -16 617 16
l167 23 0 545 c0 603 -3 630 -62 751 -56 115 -161 196 -305 236 -80 22 -341
27 -453 9z m513 -866 l47 -13 0 -237 0 -236 -37 -7 c-21 -3 -96 -9 -168 -12
-243 -12 -384 36 -436 150 -23 50 -25 162 -5 209 32 75 132 139 243 157 76 12
295 5 356 -11z"/>
<path d="M32954 20635 c-207 -46 -376 -179 -470 -370 -70 -143 -87 -221 -88
-415 -1 -105 4 -187 13 -225 22 -98 70 -211 122 -290 193 -288 574 -385 897
-229 283 137 436 454 401 832 -12 130 -34 212 -84 317 -99 205 -262 333 -485
381 -81 17 -225 16 -306 -1z m247 -229 c88 -19 137 -45 198 -106 62 -62 116
-169 137 -275 25 -124 16 -335 -20 -440 -66 -193 -188 -297 -368 -312 -135
-12 -261 40 -349 142 -90 106 -124 221 -124 430 0 161 16 239 70 345 54 106
161 190 276 215 83 17 100 18 180 1z"/>
<path d="M34695 20640 c-133 -8 -267 -27 -387 -56 l-68 -16 0 -749 0 -749 130
0 130 0 0 650 c0 608 1 650 18 659 31 16 242 34 336 28 125 -9 179 -29 243
-92 41 -41 55 -65 71 -117 37 -117 42 -205 42 -674 l0 -454 136 0 135 0 -4
528 c-4 554 -6 586 -53 712 -42 112 -131 212 -236 265 -120 60 -261 78 -493
65z"/>
<path d="M15695 20598 c16 -78 210 -641 288 -838 99 -250 131 -325 228 -535
l72 -155 187 0 187 0 76 163 c119 257 176 394 277 663 71 188 240 696 240 720
0 12 -40 14 -224 14 l-223 0 -28 -102 c-56 -211 -266 -866 -293 -914 -7 -12
-19 10 -49 97 -70 198 -196 602 -268 862 l-16 57 -231 0 -230 0 7 -32z"/>
<path d="M26500 19840 l0 -770 135 0 135 0 0 770 0 770 -135 0 -135 0 0 -770z"/>
<path d="M31720 19840 l0 -770 135 0 135 0 0 770 0 770 -135 0 -135 0 0 -770z"/>
</g>
</svg>
